<svg aria-hidden="true" style="position: absolute; width: 0; height: 0; overflow: hidden;" version="1.1"
    xmlns="http://www.w3.org/2000/svg" xmlns:xlink="http://www.w3.org/1999/xlink">
    <defs>
        <symbol id="icon-partners2" viewBox="0 0 32 32">
            <path fill="#623ce4" style="fill: var(--color1, #623ce4)"
                d="M11.044 5.687l9.911 5.035v10.068l-9.911-5.035zM22.041 10.721v10.068l9.915-5.035v-10.068zM0.047 0.068v10.068l9.911 5.035v-10.068zM11.044 26.923l9.911 5.035v-10.064l-9.911-5.035z">
            </path>
        </symbol>
        <symbol id="icon-burger-menu" viewBox="0 0 52 32">
            <path fill="#fff" style="fill: var(--color2, #fff)"
                d="M0 0.296h52.148v5.235h-52.148v-5.235zM13.037 13.383h39.111v5.234h-39.111v-5.235zM29.333 26.469h22.815v5.235h-22.815v-5.235z">
            </path>
        </symbol>
        <symbol id="icon-facebook" viewBox="0 0 32 32">
            <path fill="#fff" style="fill: var(--color2, #fff)"
                d="M30.265 0.536h-28.566c-0.687 0-1.242 0.555-1.242 1.242v28.566c0 0.687 0.555 1.242 1.242 1.242h28.566c0.687 0 1.242-0.555 1.242-1.242v-28.566c0-0.687-0.555-1.242-1.242-1.242zM26.678 9.599h-2.48c-1.945 0-2.321 0.924-2.321 2.282v2.992h4.642l-0.605 4.685h-4.037v12.028h-4.84v-12.024h-4.048v-4.689h4.048v-3.454c0-4.009 2.449-6.195 6.028-6.195 1.715 0 3.187 0.128 3.617 0.186v4.188h-0.004z">
            </path>
        </symbol>
        <symbol id="icon-intuitiveInterface" viewBox="0 0 32 32">
            <path fill="#02e4c0" style="fill: var(--color3, #02e4c0)"
                d="M13.386 14.288c1.578 2.624 1.346 5.712-0.541 6.96-1.887 1.216-4.702 0.080-6.295-2.544-1.578-2.624-1.33-5.744 0.557-6.96s4.702-0.080 6.279 2.544zM16 25.2c3.093 0 3.867-1.2 3.867-1.2s-0.773 3.2-3.867 3.2c-3.093 0-3.867-3.152-3.867-3.2 0 0 0.773 1.2 3.867 1.2zM24.893 11.744c1.887 1.216 2.134 4.336 0.557 6.96-1.593 2.624-4.408 3.76-6.295 2.544-1.887-1.248-2.119-4.336-0.541-6.96s4.393-3.76 6.279-2.544zM16 28.8c3.867 0 12.373-8.224 12.373-14.4s-5.553-11.2-12.373-11.2c-6.821 0-12.373 5.024-12.373 11.2s8.507 14.4 12.373 14.4zM16 0c8.507 0 15.467 6.464 15.467 14.4 0 6.528-8.785 17.6-15.467 17.6s-15.467-11.072-15.467-17.6c0-7.936 6.96-14.4 15.467-14.4z">
            </path>
        </symbol>
        <symbol id="icon-linkedIn" viewBox="0 0 32 32">
            <path fill="#fff" style="fill: var(--color2, #fff)"
                d="M30.253 0.536h-28.566c-0.687 0-1.242 0.555-1.242 1.242v28.566c0 0.687 0.555 1.242 1.242 1.242h28.566c0.687 0 1.242-0.555 1.242-1.242v-28.566c0-0.687-0.555-1.242-1.242-1.242zM9.655 26.995h-4.607v-14.819h4.607v14.819zM7.353 10.15c-0.528 0-1.044-0.157-1.484-0.45s-0.781-0.71-0.984-1.198-0.255-1.025-0.152-1.543c0.103-0.518 0.357-0.994 0.731-1.367s0.849-0.628 1.367-0.731c0.518-0.103 1.055-0.050 1.543 0.152s0.905 0.544 1.198 0.984c0.293 0.439 0.45 0.955 0.45 1.484-0.004 1.475-1.199 2.67-2.67 2.67zM26.903 26.995h-4.603v-7.208c0-1.719-0.031-3.928-2.395-3.928-2.395 0-2.764 1.871-2.764 3.804v7.332h-4.599v-14.819h4.417v2.026h0.062c0.613-1.164 2.115-2.395 4.359-2.395 4.665 0 5.523 3.070 5.523 7.060v8.127z">
            </path>
        </symbol>
        <symbol id="icon-location" viewBox="0 0 26 32">
            <path fill="#fff" style="fill: var(--color2, #fff)"
                d="M11.911 31.104c0.26 0.185 0.57 0.285 0.889 0.285s0.63-0.1 0.889-0.285c0.466-0.33 11.422-8.24 11.377-18.115 0-6.763-5.503-12.267-12.267-12.267s-12.267 5.503-12.267 12.259c-0.044 9.882 10.911 17.793 11.377 18.122zM12.8 3.79c5.074 0 9.2 4.126 9.2 9.208 0.032 6.805-6.728 12.915-9.2 14.919-2.47-2.006-9.232-8.117-9.2-14.927 0-5.074 4.126-9.2 9.2-9.2z">
            </path>
        </symbol>
        <symbol id="icon-partners1" viewBox="0 0 32 32">
            <path fill="#000" style="fill: var(--color4, #000)"
                d="M7.164 0.418h17.689c3.807 0 6.893 3.086 6.893 6.893v17.689c0 3.807-3.086 6.893-6.893 6.893h-17.689c-3.807 0-6.893-3.086-6.893-6.893v-17.689c0-3.807 3.086-6.893 6.893-6.893z">
            </path>
            <path fill="#fff" style="fill: var(--color2, #fff)"
                d="M10.358 23.263l0.003 0.001-1.076 1.864c-0.393 0.68-1.263 0.914-1.943 0.521s-0.914-1.263-0.521-1.943l0.869-1.505c0.136-0.195 0.471-0.532 1.142-0.469 0 0 1.578 0.171 1.693 0.992 0 0 0.015 0.27-0.166 0.54zM25.622 18.503h-3.356c-0.229-0.015-0.328-0.097-0.368-0.144l-0.002-0.004-3.592-6.222-0.005 0.003-0.215-0.309c-0.353-0.54-0.914 0.841-0.914 0.841-0.669 1.539 0.095 3.288 0.361 3.817l4.99 8.642c0.393 0.68 1.263 0.914 1.943 0.521s0.914-1.263 0.521-1.943l-1.248-2.161c-0.024-0.052-0.066-0.195 0.19-0.195h1.695c0.786 0 1.423-0.637 1.423-1.423s-0.637-1.423-1.423-1.423v0zM19.104 20.436c0 0 0.179 0.911-0.514 0.911h-12.406c-0.786 0-1.423-0.637-1.423-1.423s0.637-1.423 1.423-1.423h3.189c0.515-0.030 0.637-0.327 0.637-0.327l0.003 0.001 4.162-7.211c0.076-0.139 0.013-0.271 0.002-0.292l-1.375-2.381c-0.393-0.68-0.16-1.55 0.521-1.943s1.55-0.16 1.943 0.521l0.638 1.104 0.637-1.103c0.393-0.68 1.263-0.914 1.943-0.521s0.914 1.263 0.521 1.943l-5.793 10.034c-0.025 0.061-0.033 0.157 0.155 0.174h3.463l0.001 0.034c0 0 2.001 0.031 2.274 1.9z">
            </path>
        </symbol>
        <symbol id="icon-partners3" viewBox="0 0 27 32">
            <path fill="#fff" style="fill: var(--color2, #fff)"
                d="M8.395 0.322c-0.153 0.001-0.303 0.040-0.436 0.113-0.439 0.244-0.601 0.808-0.357 1.247l0.992 1.791c-2.39 1.479-3.974 4.005-3.974 6.887v0.536c-0.459-0.528-1.134-0.862-1.888-0.862-1.381 0-2.503 1.121-2.503 2.503v7.709c0 1.381 1.122 2.503 2.503 2.503 0.754 0 1.429-0.334 1.888-0.862v1.080c0 1.456 1.191 2.647 2.647 2.647h0.672v3.429c0 1.381 1.122 2.503 2.503 2.503s2.503-1.122 2.503-2.503v-3.429h1.162v3.429c0 1.381 1.122 2.503 2.503 2.503s2.503-1.122 2.503-2.503v-3.429h0.672c1.456 0 2.647-1.191 2.647-2.647v-1.080c0.459 0.528 1.134 0.862 1.888 0.862 1.381 0 2.503-1.122 2.503-2.503v-7.709c0-1.381-1.121-2.503-2.503-2.503-0.754 0-1.429 0.333-1.888 0.862v-0.471c0-0.027 0-0.049 0-0.065 0-2.882-1.587-5.406-3.976-6.884l0.995-1.794c0.243-0.439 0.082-1.004-0.357-1.247-0.134-0.073-0.284-0.112-0.436-0.113-0.325-0.003-0.643 0.168-0.811 0.471l-1.040 1.879c-1.017-0.375-2.124-0.581-3.279-0.581-1.154 0-2.263 0.204-3.279 0.578l-1.040-1.876c-0.168-0.303-0.486-0.473-0.811-0.471z">
            </path>
            <path fill="#a4c639" style="fill: var(--color5, #a4c639)"
                d="M2.732 10.687c-1.031 0-1.851 0.82-1.851 1.851v7.709c0 1.031 0.82 1.851 1.851 1.851s1.851-0.82 1.851-1.851v-7.709c0-1.031-0.82-1.851-1.851-1.851zM24.318 10.687c-1.031 0-1.851 0.82-1.851 1.851v7.709c0 1.031 0.82 1.851 1.851 1.851s1.851-0.82 1.851-1.851v-7.709c0-1.031-0.82-1.851-1.851-1.851z">
            </path>
            <path fill="#a4c639" style="fill: var(--color5, #a4c639)"
                d="M10.442 19.485c-1.031 0-1.851 0.82-1.851 1.851v7.709c0 1.031 0.82 1.851 1.851 1.851s1.851-0.82 1.851-1.851v-7.709c0-1.031-0.82-1.851-1.851-1.851zM16.609 19.485c-1.031 0-1.851 0.82-1.851 1.851v7.709c0 1.031 0.82 1.851 1.851 1.851s1.851-0.82 1.851-1.851v-7.709c0-1.031-0.82-1.851-1.851-1.851z">
            </path>
            <path fill="#a4c639" style="fill: var(--color5, #a4c639)"
                d="M8.401 0.974c-0.044 0.001-0.087 0.012-0.125 0.034-0.132 0.073-0.175 0.225-0.102 0.357l1.304 2.355c-2.508 1.305-4.203 3.786-4.206 6.632h16.507c-0.003-2.847-1.698-5.327-4.206-6.632l1.304-2.355c0.073-0.132 0.030-0.284-0.102-0.357-0.038-0.022-0.081-0.033-0.125-0.034-0.094-0.001-0.182 0.046-0.232 0.136l-1.321 2.381c-1.080-0.479-2.292-0.748-3.571-0.748s-2.491 0.269-3.571 0.748l-1.321-2.381c-0.023-0.042-0.056-0.077-0.097-0.101s-0.088-0.036-0.135-0.035h-0zM5.272 11.004v11.964c-0.001 0.262 0.051 0.522 0.151 0.764s0.247 0.462 0.432 0.648c0.185 0.185 0.406 0.332 0.648 0.432s0.502 0.151 0.764 0.151h12.516c0.262 0.001 0.522-0.051 0.764-0.151s0.463-0.247 0.648-0.432c0.185-0.185 0.332-0.406 0.432-0.648s0.151-0.502 0.151-0.764v-11.963l-16.507-0z">
            </path>
            <path fill="#fff" style="fill: var(--color2, #fff)"
                d="M9.716 5.954c-0.377 0-0.689 0.312-0.689 0.689s0.312 0.689 0.689 0.689c0.377 0 0.689-0.312 0.689-0.689s-0.312-0.689-0.689-0.689zM17.334 5.954c-0.377 0-0.689 0.312-0.689 0.689s0.312 0.689 0.689 0.689c0.377 0 0.689-0.312 0.689-0.689s-0.312-0.689-0.689-0.689z">
            </path>
        </symbol>
        <symbol id="icon-partners4" viewBox="0 0 38 32">
            <path fill="#b6deff" style="fill: var(--color6, #b6deff)"
                d="M19.23 0.418c-10.143 0-18.090 12.905-18.842 23.805 3.183 5.524 10.859 7.601 18.842 7.601s15.659-2.076 18.84-7.601c-0.752-10.899-8.698-23.804-18.84-23.804z">
            </path>
            <path fill="#6c6" style="fill: var(--color7, #6c6)"
                d="M35.42 21.626c0 0-2.24-4.843-4.517-7.669-2.279-2.827-5.061-5.905-6.707-5.905s-6.241 8.139-8.35 8.139c-2.109 0-3.205-3.69-5.799-3.69s-6.716 8.897-6.716 8.897l-0.279 1.508c0 0 1.432 6.348 16.412 6.348s16.178-6.244 16.178-6.244l-0.222-1.385z">
            </path>
            <path fill="#17ad49" style="fill: var(--color8, #17ad49)"
                d="M16.081 19.665c-2.327 0-3.519-2.296-4.166-3.712-0.582-1.277-0.682-3.292-2.332-3.348 0.162-0.064 0.318-0.102 0.464-0.102 2.593 0 3.689 3.69 5.799 3.69s6.706-8.139 8.35-8.139c0.31 0 0.659 0.109 1.038 0.304-0.28-0.037-0.639-0.011-0.916 0.266-0.532 0.532-5.357 11.042-8.237 11.042z">
            </path>
        </symbol>
        <symbol id="icon-partners5" viewBox="0 0 30 32">
            <path fill="#e0565b" style="fill: var(--color9, #e0565b)"
                d="M27.355 25.575c-0.219 1.63-1.316 3.040-2.852 3.667-0.752 0.313-1.567 0.407-2.382 0.313-0.783-0.094-1.567-0.345-2.382-0.814-1.128-0.628-2.257-1.599-3.573-3.040 2.069-2.539 3.322-4.858 3.792-6.926 0.219-0.972 0.251-1.849 0.157-2.664-0.125-0.783-0.407-1.505-0.846-2.131-0.972-1.41-2.601-2.225-4.419-2.225s-3.447 0.846-4.419 2.225c-0.439 0.627-0.721 1.348-0.846 2.131-0.125 0.815-0.094 1.724 0.157 2.664 0.47 2.068 1.755 4.419 3.792 6.957-1.285 1.442-2.445 2.414-3.573 3.041-0.815 0.47-1.598 0.721-2.382 0.815-0.808 0.090-1.625-0.017-2.382-0.313-1.536-0.627-2.632-2.038-2.852-3.667-0.094-0.783-0.031-1.567 0.282-2.444 0.094-0.314 0.251-0.626 0.407-1.003 0.22-0.501 0.47-1.034 0.721-1.567l0.032-0.062c2.162-4.67 4.482-9.434 6.895-14.072l0.094-0.188c0.251-0.47 0.501-0.971 0.752-1.441 0.251-0.502 0.533-0.972 0.877-1.38 0.658-0.752 1.536-1.16 2.507-1.16s1.849 0.407 2.507 1.16c0.345 0.408 0.627 0.878 0.878 1.38 0.251 0.47 0.501 0.971 0.752 1.441l0.094 0.188c2.382 4.67 4.701 9.433 6.864 14.103v0.031c0.251 0.502 0.47 1.066 0.721 1.567 0.157 0.376 0.313 0.689 0.407 1.003 0.251 0.815 0.345 1.599 0.22 2.413h-0zM14.85 24.101c-1.692-2.131-2.789-4.137-3.165-5.829-0.156-0.721-0.188-1.348-0.094-1.912 0.063-0.502 0.251-0.941 0.501-1.317 0.596-0.845 1.598-1.379 2.758-1.379s2.194 0.502 2.758 1.379c0.251 0.376 0.439 0.815 0.501 1.317 0.094 0.564 0.063 1.222-0.094 1.912-0.376 1.661-1.473 3.667-3.165 5.829zM28.985 22.472c-0.157-0.376-0.313-0.783-0.47-1.128-0.251-0.564-0.502-1.097-0.721-1.599l-0.031-0.031c-2.162-4.701-4.482-9.465-6.926-14.166l-0.094-0.189c-0.251-0.47-0.502-0.972-0.752-1.473-0.314-0.564-0.627-1.159-1.128-1.724-1.003-1.254-2.445-1.943-3.981-1.943-1.567 0-2.977 0.689-4.012 1.881-0.47 0.564-0.815 1.159-1.128 1.724-0.251 0.501-0.502 1.003-0.752 1.473l-0.094 0.188c-2.413 4.701-4.764 9.465-6.926 14.166l-0.031 0.063c-0.22 0.501-0.47 1.034-0.721 1.598-0.168 0.371-0.324 0.748-0.47 1.128-0.408 1.159-0.533 2.256-0.376 3.385 0.345 2.351 1.912 4.325 4.075 5.203 0.815 0.345 1.661 0.502 2.539 0.502 0.251 0 0.564-0.031 0.815-0.063 1.034-0.126 2.1-0.47 3.134-1.065 1.285-0.721 2.508-1.755 3.886-3.259 1.379 1.504 2.633 2.539 3.886 3.259 1.034 0.596 2.1 0.94 3.134 1.065 0.251 0.032 0.564 0.063 0.815 0.063 0.878 0 1.755-0.157 2.539-0.502 2.194-0.877 3.73-2.883 4.074-5.203 0.251-1.097 0.125-2.194-0.282-3.354l0 0z">
            </path>
        </symbol>
        <symbol id="icon-partners6" viewBox="0 0 79 32">
            <path fill="#1f70c1" style="fill: var(--color10, #1f70c1)"
                d="M0.33 0.418v2.151h15.302v-2.151h-15.302zM17.8 0.418v2.151h21.806c0 0-2.227-2.151-5.177-2.151h-16.628zM43.883 0.418v2.151h13.192l-0.783-2.151h-12.409zM66.533 0.418l-0.783 2.151h13.072v-2.151h-12.289zM0.33 4.602v2.151h15.302v-2.151h-15.302zM17.8 4.605v2.148h24.336c0 0-0.284-1.656-0.78-2.148h-23.556zM43.883 4.605v2.148h14.638l-0.724-2.148h-13.914zM64.967 4.605l-0.724 2.148h14.58v-2.148h-13.855zM4.728 8.786v2.154h6.627v-2.154h-6.627zM22.197 8.786v2.154h6.627v-2.154h-6.627zM35.269 8.786v2.154h6.627c0 0 0.421-1.138 0.421-2.154l-7.047 0zM48.28 8.786v2.154h11.748l-0.783-2.154-10.966 0zM63.524 8.786l-0.786 2.154h11.807v-2.154h-11.021zM4.728 12.973v2.151h6.627v-2.151h-6.627zM22.197 12.973v2.151h16.926c0 0 1.416-1.104 1.867-2.151l-18.793 0zM48.28 12.973v2.151h6.627v-1.198l0.421 1.198h12.139l0.452-1.198v1.198h6.627v-2.151h-12.44l-0.66 1.822-0.663-1.822h-12.501zM4.728 17.157v2.151h6.627v-2.151h-6.627zM22.197 17.157v2.151h18.793c-0.451-1.044-1.867-2.151-1.867-2.151h-16.926zM48.28 17.157v2.151h6.627v-2.151h-6.627zM56.111 17.157l0.802 2.151h9.102l0.762-2.151h-10.665zM67.918 17.157v2.151h6.627v-2.151h-6.627zM4.728 21.34v2.151h6.627v-2.151h-6.627zM22.197 21.34v2.151h6.627v-2.151h-6.627zM35.269 21.34v2.151h7.047c0-1.015-0.421-2.151-0.421-2.151h-6.627zM48.28 21.34v2.151h6.627v-2.151h-6.627zM57.616 21.34l0.776 2.151h6.102l0.783-2.151h-7.661zM67.918 21.34v2.151h6.627v-2.151h-6.627zM0.45 25.524v2.154h15.302v-2.154l-15.302 0zM17.8 25.524v2.154h23.556c0.496-0.493 0.78-2.154 0.78-2.154l-24.336 0zM44.003 25.524v2.154h10.905v-2.154l-10.905 0zM59.123 25.524l0.798 2.154h3.105l0.749-2.154-4.652 0zM67.918 25.524v2.154h11.024v-2.154l-11.024 0zM0.45 29.711v2.151h15.302v-2.151h-15.302zM17.8 29.711v2.148h16.628c2.95 0 5.177-2.148 5.177-2.148l-21.806 0zM44.003 29.711v2.151h10.905v-2.151h-10.905zM60.637 29.711l0.767 2.145 0.132 0.003 0.78-2.148-1.679 0zM67.918 29.711v2.151h11.024v-2.151h-11.024z">
            </path>
        </symbol>
        <symbol id="icon-phone" viewBox="0 0 20 32">
            <path fill="#fff" style="fill: var(--color2, #fff)"
                d="M15.838 0.028h-11.313c-2.347 0-4.242 1.895-4.242 4.242v22.626c0 2.348 1.895 4.242 4.242 4.242h11.313c2.347 0 4.242-1.895 4.242-4.242v-22.626c0-2.347-1.895-4.242-4.242-4.242zM13.010 28.311h-5.657v-1.414h5.657v1.414zM17.606 24.068h-14.848v-19.798h14.848v19.798z">
            </path>
        </symbol>
        <symbol id="icon-soursOftruth" viewBox="0 0 35 32">
            <path fill="#02e4c0" style="fill: var(--color3, #02e4c0)"
                d="M9.528 18.145l5.031-5.031-11.004-10.987c-0.853-0.853-2.329-0.622-2.862 0.48-1.262 2.649-0.8 5.902 1.387 8.107l7.449 7.431zM21.582 14.927c2.72 1.262 6.542 0.373 9.369-2.453 3.396-3.396 4.053-8.267 1.44-10.88-2.595-2.596-7.467-1.956-10.88 1.44-2.827 2.827-3.715 6.649-2.453 9.369l-16.107 16.107c-0.332 0.332-0.519 0.783-0.519 1.253s0.187 0.921 0.519 1.253c0.332 0.332 0.783 0.519 1.253 0.519s0.921-0.187 1.253-0.519l11.004-10.969 10.987 10.987c0.165 0.165 0.36 0.295 0.575 0.384s0.446 0.135 0.678 0.135c0.233 0 0.463-0.046 0.678-0.135s0.41-0.22 0.575-0.384c0.165-0.165 0.295-0.36 0.384-0.575s0.135-0.446 0.135-0.678c0-0.233-0.046-0.463-0.135-0.678s-0.22-0.41-0.384-0.575l-10.987-10.987 2.613-2.613z">
            </path>
        </symbol>
        <symbol id="icon-twitter" viewBox="0 0 40 32">
            <path fill="#fff" style="fill: var(--color2, #fff)"
                d="M39.023 3.713c-1.4 0.604-2.923 1.038-4.492 1.208 1.629-0.968 2.849-2.497 3.431-4.3-1.529 0.909-3.203 1.547-4.95 1.885-0.73-0.78-1.613-1.402-2.593-1.826s-2.038-0.642-3.107-0.64c-4.323 0-7.799 3.504-7.799 7.804 0 0.604 0.073 1.208 0.192 1.789-6.473-0.338-12.246-3.431-16.084-8.165-0.699 1.194-1.066 2.554-1.061 3.939 0 2.708 1.377 5.096 3.477 6.5-1.237-0.049-2.446-0.389-3.527-0.993v0.096c0 3.792 2.681 6.935 6.253 7.658-0.671 0.174-1.361 0.263-2.054 0.265-0.508 0-0.988-0.050-1.473-0.119 0.988 3.092 3.865 5.338 7.292 5.412-2.681 2.1-6.038 3.335-9.684 3.335-0.654 0-1.258-0.023-1.885-0.096 3.458 2.218 7.561 3.499 11.98 3.499 14.345 0 22.195-11.884 22.195-22.2 0-0.338 0-0.677-0.023-1.016 1.519-1.112 2.85-2.488 3.911-4.035z">
            </path>
        </symbol>
        <symbol id="icon-withRules" viewBox="0 0 71 32">
            <path fill="#02e4c0" style="fill: var(--color3, #02e4c0)"
                d="M54.358 0c-4.143 0-8.056 1.665-10.847 4.55l-20.227 18.558c-1.841 1.903-4.287 2.944-6.905 2.944-5.38 0-9.782-4.491-9.782-10.052s4.402-10.052 9.782-10.052c2.618 0 5.064 1.041 7.020 3.063l3.251 2.974 4.402-3.985-3.683-3.301c-1.441-1.495-3.154-2.68-5.040-3.486s-3.909-1.219-5.95-1.212c-8.574 0-15.537 7.197-15.537 16s6.963 16 15.537 16c4.143 0 8.056-1.665 10.847-4.55l20.227-18.558c1.841-1.903 4.287-2.944 6.905-2.944 5.38 0 9.782 4.491 9.782 10.052s-4.402 10.052-9.782 10.052c-2.589 0-5.064-1.041-7.020-3.063l-3.338-3.004-4.316 3.985 3.683 3.331c1.445 1.488 3.159 2.666 5.045 3.467s3.907 1.21 5.946 1.202c8.574 0 15.537-7.167 15.537-15.97 0-8.922-6.963-16-15.537-16z">
            </path>
        </symbol>
        <symbol id="icon-list2" viewBox="0 0 32 32">
            <path
                d="M12 2h20v4h-20v-4zM12 14h20v4h-20v-4zM12 26h20v4h-20v-4zM0 4c0-2.209 1.791-4 4-4s4 1.791 4 4c0 2.209-1.791 4-4 4s-4-1.791-4-4zM0 16c0-2.209 1.791-4 4-4s4 1.791 4 4c0 2.209-1.791 4-4 4s-4-1.791-4-4zM0 28c0-2.209 1.791-4 4-4s4 1.791 4 4c0 2.209-1.791 4-4 4s-4-1.791-4-4z">
            </path>
        </symbol>
        <symbol id="icon-cancel-circle" viewBox="0 0 32 32">
            <path
                d="M16 0c-8.837 0-16 7.163-16 16s7.163 16 16 16 16-7.163 16-16-7.163-16-16-16zM16 29c-7.18 0-13-5.82-13-13s5.82-13 13-13 13 5.82 13 13-5.82 13-13 13z">
            </path>
            <path d="M21 8l-5 5-5-5-3 3 5 5-5 5 3 3 5-5 5 5 3-3-5-5 5-5z"></path>
        </symbol>
        <symbol id="icon-cross" viewBox="0 0 32 32">
            <path
                d="M31.708 25.708c-0-0-0-0-0-0l-9.708-9.708 9.708-9.708c0-0 0-0 0-0 0.105-0.105 0.18-0.227 0.229-0.357 0.133-0.356 0.057-0.771-0.229-1.057l-4.586-4.586c-0.286-0.286-0.702-0.361-1.057-0.229-0.13 0.048-0.252 0.124-0.357 0.228 0 0-0 0-0 0l-9.708 9.708-9.708-9.708c-0-0-0-0-0-0-0.105-0.104-0.227-0.18-0.357-0.228-0.356-0.133-0.771-0.057-1.057 0.229l-4.586 4.586c-0.286 0.286-0.361 0.702-0.229 1.057 0.049 0.13 0.124 0.252 0.229 0.357 0 0 0 0 0 0l9.708 9.708-9.708 9.708c-0 0-0 0-0 0-0.104 0.105-0.18 0.227-0.229 0.357-0.133 0.355-0.057 0.771 0.229 1.057l4.586 4.586c0.286 0.286 0.702 0.361 1.057 0.229 0.13-0.049 0.252-0.124 0.357-0.229 0-0 0-0 0-0l9.708-9.708 9.708 9.708c0 0 0 0 0 0 0.105 0.105 0.227 0.18 0.357 0.229 0.356 0.133 0.771 0.057 1.057-0.229l4.586-4.586c0.286-0.286 0.362-0.702 0.229-1.057-0.049-0.13-0.124-0.252-0.229-0.357z">
            </path>
        </symbol>
    </defs>
</svg>